<?xml version="1.0" encoding="UTF-8"?>
<!DOCTYPE svg PUBLIC "-//W3C//DTD SVG 1.1//EN" "http://www.w3.org/Graphics/SVG/1.1/DTD/svg11.dtd">
<!-- Creator: CorelDRAW 2021 (64-Bit) -->
<svg xmlns="http://www.w3.org/2000/svg" xml:space="preserve" width="3.1147in" height="1.23358in" version="1.1" style="shape-rendering:geometricPrecision; text-rendering:geometricPrecision; image-rendering:optimizeQuality; fill-rule:evenodd; clip-rule:evenodd"
viewBox="0 0 2289.66 906.83"
 xmlns:xlink="http://www.w3.org/1999/xlink"
 xmlns:xodm="http://www.corel.com/coreldraw/odm/2003">
 <defs>
  <style type="text/css">
   <![CDATA[
    .fil1 {fill:#FFC630}
    .fil0 {fill:#80559A}
    .fil3 {fill:#363434}
    .fil2 {fill:#26B1A3}
   ]]>
  </style>
 </defs>
 <g id="Layer_x0020_1">
  <metadata id="CorelCorpID_0Corel-Layer"/>
  <g id="_2093978688240">
   <g>
    <polygon class="fil0" points="109.63,522.94 256.35,554.25 403.87,648.93 526.13,570.28 629.65,534.39 676.92,524.47 673.66,455.73 548.95,238.1 281.61,209.83 165.87,308.35 112.89,432.82 "/>
    <path class="fil1" d="M520.57 404.78c-14.57,0 -26.39,11.51 -26.39,25.72 0,14.2 11.83,25.72 26.39,25.72 14.57,0 26.4,-11.52 26.4,-25.72 0,-14.21 -11.83,-25.72 -26.4,-25.72zm-130.03 -56.63c-17.29,0 -31.29,15.71 -31.29,35.1 0,19.37 14.01,35.09 31.29,35.09 17.27,0 31.28,-15.72 31.28,-35.09 0,-19.39 -14,-35.1 -31.28,-35.1zm-276.05 157.14c33.63,28.7 122.58,12.36 170.69,13.15 48.1,0.8 74.92,63.02 74.92,63.02 0,0 -31.93,-198.61 -40.87,-230.51 -8.94,-31.9 -65.12,-78.57 -72.36,-35.09 -7.25,43.47 46.82,74.17 46.82,74.17 0,0 -34.05,-66.19 -11.91,-55.83 22.13,10.37 45.96,88.54 2.98,133.21 -43,44.66 -170.27,37.89 -170.27,37.89zm233.68 -77.77c35.33,54.24 30.22,161.11 30.22,161.11l16.18 0c0,0 2.12,-113.25 70.23,-164.71 68.11,-51.44 98.76,-147.95 45.98,-127.61 -52.78,20.34 -51.94,86.94 -51.94,86.94 0,0 97.06,-134 44.27,-35.1 -52.78,98.91 -154.94,79.37 -154.94,79.37zm69.39 153.94c0,-0.4 21.28,-0.4 21.28,-0.4 18.73,-71.38 219.64,-61.81 219.64,-61.81l0 -15.95c-149.4,23.93 -184.31,-65.01 -184.31,-65.01 -57.04,46.26 -56.61,143.18 -56.61,143.18zm-174.95 -176.67c-16.92,0 -30.65,14.02 -30.65,31.3 0,17.3 13.73,31.31 30.65,31.31 16.93,0 30.65,-14.02 30.65,-31.31 0,-17.28 -13.72,-31.3 -30.65,-31.3zm134.76 -254.2c179.79,0 325.54,136.55 325.54,305 0,61.4 -19.37,118.55 -52.69,166.4 -26.83,19.44 -45.91,29.26 -45.91,29.26l33.99 -106.43c-108.33,23.39 -191.09,135.06 -226.4,212.63 -15.27,2.07 -23.54,3.15 -34.54,3.15 -10.98,0 -3.96,-0.16 -9.96,-0.48 -34.05,-77.64 -115.78,-197.01 -228.22,-221.28l31.96 106.44c0,0 -43.96,-24.73 -94.79,-73.39 -15.79,-35.83 -24.52,-75.11 -24.52,-116.29 0,-168.45 145.75,-305 325.54,-305z"/>
    <path class="fil0" d="M384.43 844.06c0,0 -66.02,-232.15 -221.7,-265.75l29.35 97.74c0,0 -132.04,-67.96 -180.95,-200.07 0,0 -11.41,216.12 153.23,279.5 153.88,59.24 216.62,135.15 224.17,144.82 0.08,4.33 0.35,6.53 0.35,6.53 0,0 60.32,-82.47 224.97,-145.85 164.65,-63.38 153.23,-279.49 153.23,-279.49 -48.91,132.1 -180.94,200.07 -180.94,200.07l29.34 -97.76c-155.69,33.61 -221.7,265.75 -221.7,265.75 -2.38,12.13 -3.72,22.4 -4.47,30.76 -0.59,-9.19 -1.95,-21.32 -4.88,-36.26z"/>
    <path class="fil1" d="M398.18 139.58c0,0 95.81,-130.86 7.99,-139.3 -77.84,-7.48 -9.99,137.43 -7.99,139.3z"/>
    <path class="fil1" d="M555.51 185.82c0,0 108.67,-85.35 39.86,-110.66 -60.97,-22.42 -41.02,108.73 -39.86,110.66z"/>
    <path class="fil1" d="M663.48 282.59c0,0 118.34,-53.72 62.57,-91.07 -49.42,-33.09 -63.15,89.09 -62.57,91.07z"/>
    <path class="fil1" d="M707.32 363.15c0,0 87.06,-17.25 56.91,-50.29 -26.71,-29.27 -56.95,48.89 -56.91,50.29z"/>
    <path class="fil1" d="M239.58 162.69c0,0 -108.67,-85.35 -39.86,-110.66 60.97,-22.42 41.01,108.73 39.86,110.66z"/>
    <path class="fil1" d="M123.44 247.98c0,0 -118.34,-53.72 -62.57,-91.07 49.42,-33.09 63.15,89.09 62.57,91.07z"/>
    <path class="fil1" d="M63.25 340.02c0,0 -87.05,-17.25 -56.9,-50.29 26.71,-29.27 56.95,48.89 56.9,50.29z"/>
   </g>
   <g>
    <path class="fil0" d="M1280.96 500.53l0 -113.75c0,-10.42 1.94,-20.25 5.85,-29.5 3.88,-9.25 9.73,-17.92 17.5,-25.98 8.07,-7.83 17.53,-13.75 28.37,-17.79 10.85,-4.05 23.23,-6.05 37.13,-6.05 2.23,0 4.66,0.13 7.3,0.39 2.64,0.26 5.49,0.64 8.55,1.16 3.06,0.53 6.19,1.17 9.39,1.96 3.19,0.79 6.47,1.82 9.79,3.13 5.84,2.35 11.41,5.34 16.69,8.99 5.28,3.65 10.43,8.09 15.43,13.29 5,4.95 8.75,11.08 11.26,18.37 2.51,7.3 3.75,15.63 3.75,25.01l0 0.98 0 1.37 0 0.98 0 1.37 0 116.08 -39.64 0 0 -110.61c0,-5.74 -0.89,-11.41 -2.7,-17 -1.81,-5.6 -4.52,-10.88 -8.13,-15.83 -3.62,-5.21 -8.36,-9.12 -14.19,-11.73 -5.85,-2.6 -12.79,-3.91 -20.87,-3.91 -7.51,0 -14.11,1.18 -19.81,3.51 -5.72,2.35 -10.64,5.87 -14.81,10.57 -4.17,4.69 -7.46,9.7 -9.81,15.04 -2.36,5.34 -3.96,11 -4.79,17l0 112.96 -36.3 0zm-75.5 0l0 -107.88c0,-5.74 -1.19,-11.4 -3.55,-17 -2.38,-5.6 -5.92,-10.87 -10.64,-15.83 -4.74,-5.21 -11.41,-9.12 -20.04,-11.71 -8.62,-2.62 -19.03,-3.91 -31.28,-3.91 -1.94,0 -3.96,0.13 -6.05,0.39 -2.08,0.25 -4.38,0.64 -6.89,1.17 -2.49,0.26 -5,0.79 -7.51,1.56 -2.49,0.79 -5,1.83 -7.51,3.12 -4.43,1.82 -8.75,4.37 -12.92,7.63 -4.17,3.26 -8.21,7.09 -12.1,11.53 -3.62,4.17 -6.54,9.31 -8.77,15.44 -2.23,6.13 -3.6,13.09 -4.17,20.91 0,10.42 1.53,19.48 4.59,27.17 3.08,7.67 7.66,14.12 13.77,19.33 6.4,4.97 12.99,8.93 19.81,11.92 6.83,3.01 13.98,4.89 21.49,5.68l1.06 0 1.04 0c0.54,0.27 1.04,0.4 1.45,0.4l1.06 0 1.25 0 1.25 0 1.04 0 1.05 0c3.34,0 6.45,-0.2 9.37,-0.6 2.93,-0.4 5.78,-1.11 8.57,-2.14 1.38,-0.52 2.7,-1.03 3.96,-1.56 1.25,-0.52 2.57,-1.05 3.96,-1.56 1.11,-0.79 2.36,-1.56 3.75,-2.35 1.37,-0.79 2.64,-1.7 3.75,-2.73 1.37,-0.79 2.71,-1.77 3.96,-2.93 1.24,-1.18 2.56,-2.3 3.96,-3.33 1.4,-1.3 2.78,-2.54 4.17,-3.72 1.39,-1.17 2.78,-2.41 4.17,-3.7l0 42.61c-0.28,0.51 -0.49,0.85 -0.63,0.98 -0.13,0.13 -0.21,0.19 -0.21,0.19l0 0.39c-3.34,2.09 -6.81,3.97 -10.43,5.66 -3.62,1.69 -7.38,3.2 -11.26,4.49 -3.89,1.05 -8.62,1.9 -14.19,2.54 -5.57,0.65 -11.96,0.98 -19.19,0.98l-0.63 0 -0.62 0 -0.85 0 -0.41 0 -0.84 0 -0.83 0 -0.62 0 -0.63 0c-12.81,0 -24.69,-2.14 -35.67,-6.45 -10.98,-4.29 -21.07,-10.87 -30.24,-19.72 -9.19,-9.12 -16.07,-19.62 -20.66,-31.48 -4.58,-11.85 -6.88,-25.2 -6.88,-40.05 0,-13.03 2.23,-25.14 6.68,-36.35 4.45,-11.21 11.13,-21.49 20.03,-30.88 8.89,-9.38 19.88,-16.41 32.94,-21.11 13.07,-4.69 28.24,-7.04 45.48,-7.04 16.4,0 31,2.09 43.81,6.26 12.79,4.17 23.49,10.42 32.11,18.77 8.9,8.32 15.51,17.12 19.83,26.38 4.3,9.23 6.45,18.82 6.45,28.72l0 109.83 -39.62 0zm-325.39 -92.23c0,-2.09 0.13,-4.44 0.41,-7.05 0.28,-2.59 0.7,-5.34 1.24,-8.2 0.57,-2.86 1.39,-5.79 2.51,-8.8 1.11,-2.99 2.36,-6.05 3.75,-9.18 3.06,-7.29 7.22,-14.27 12.51,-20.9 5.28,-6.66 11.68,-12.98 19.21,-18.96 7.51,-6 16.18,-10.55 26.07,-13.69 9.87,-3.12 20.92,-4.68 33.16,-4.68l39.2 -0.79 0 33.62 -29.61 0c-1.95,0.51 -3.89,0.85 -5.83,0.98 -1.96,0.13 -4.04,0.45 -6.26,0.98 -2.23,0.27 -4.45,0.64 -6.68,1.17 -2.23,0.53 -4.45,1.17 -6.68,1.96 -5,1.82 -9.79,4.17 -14.4,7.03 -4.58,2.88 -8.96,6.52 -13.13,10.94 -4.17,4.18 -7.3,9.31 -9.4,15.44 -2.08,6.13 -3.13,13.08 -3.13,20.91l0 2.35 0 1.96c0,0.77 0.08,1.56 0.21,2.35 0.15,0.77 0.23,1.56 0.23,2.33 0,0.79 0.13,1.56 0.41,2.35 0.27,0.79 0.42,1.56 0.42,2.35 0.26,1.03 0.55,1.96 0.83,2.72 0.28,0.79 0.54,1.56 0.83,2.35 1.39,4.95 3.63,9.71 6.68,14.27 3.06,4.55 6.81,8.91 11.26,13.09 4.46,4.17 9.87,7.22 16.26,9.18 6.4,1.96 13.93,2.93 22.55,2.93l1.45 0 1.04 0 1.68 0 1.66 0 29.61 -0.77 0 33.99 -42.54 0c-12.81,-0.27 -24.13,-1.96 -34.01,-5.08 -9.87,-3.14 -18.41,-7.69 -25.66,-13.69 -6.94,-5.98 -12.84,-12.24 -17.72,-18.75 -4.87,-6.52 -8.7,-13.29 -11.47,-20.33 -1.11,-2.87 -2.09,-5.81 -2.92,-8.8 -0.83,-2.99 -1.53,-5.92 -2.1,-8.8 -0.54,-2.86 -0.96,-5.6 -1.24,-8.2 -0.28,-2.61 -0.41,-5.21 -0.41,-7.82l0 -0.77z"/>
    <path class="fil2" d="M2118.63 500.53l0 -113.75c0,-10.42 1.94,-20.25 5.85,-29.5 3.89,-9.25 9.74,-17.92 17.51,-25.98 8.07,-7.83 17.52,-13.75 28.38,-17.79 10.84,-4.05 23.22,-6.05 37.13,-6.05 2.23,0 4.66,0.13 7.3,0.39 2.64,0.26 5.48,0.64 8.54,1.16 3.05,0.53 6.19,1.17 9.4,1.96 3.19,0.79 6.47,1.82 9.79,3.13 5.85,2.35 11.41,5.34 16.7,8.99 5.28,3.65 10.43,8.09 15.43,13.29 5,4.95 8.75,11.08 11.26,18.37 2.51,7.3 3.76,15.63 3.76,25.01l0 0.98 0 1.37 0 0.98 0 1.37 0 116.08 -39.64 0 0 -110.61c0,-5.74 -0.89,-11.41 -2.7,-17 -1.81,-5.6 -4.52,-10.88 -8.13,-15.83 -3.63,-5.21 -8.36,-9.12 -14.19,-11.73 -5.85,-2.6 -12.79,-3.91 -20.87,-3.91 -7.51,0 -14.11,1.18 -19.81,3.51 -5.7,2.35 -10.64,5.87 -14.81,10.57 -4.17,4.69 -7.46,9.7 -9.81,15.04 -2.36,5.34 -3.96,11 -4.79,17l0 112.96 -36.3 0zm-210.25 0l0 -113.75c0,-10.42 1.94,-20.25 5.85,-29.5 3.89,-9.25 9.74,-17.92 17.53,-25.98 8.05,-7.83 17.5,-13.75 28.35,-17.79 10.84,-4.05 23.22,-6.05 37.12,-6.05 2.23,0 4.66,0.13 7.3,0.39 2.64,0.26 5.48,0.64 8.54,1.16 3.08,0.53 6.21,1.17 9.4,1.96 3.2,0.79 6.47,1.82 9.81,3.13 5.83,2.35 11.39,5.34 16.68,8.99 5.28,3.65 10.43,8.09 15.43,13.29 5.02,4.95 8.78,11.08 11.26,18.37 2.51,7.3 3.75,15.63 3.75,25.01l0 0.98 0 1.37 0 0.98 0 1.37 0 116.08 -39.62 0 0 -110.61c0,-5.74 -0.9,-11.41 -2.72,-17 -1.81,-5.6 -4.53,-10.88 -8.13,-15.83 -3.63,-5.21 -8.34,-9.12 -14.19,-11.73 -5.85,-2.6 -12.79,-3.91 -20.87,-3.91 -7.51,0 -14.11,1.18 -19.81,3.51 -5.7,2.35 -10.64,5.87 -14.81,10.57 -4.17,4.69 -7.43,9.7 -9.81,15.04 -2.36,5.34 -3.96,11 -4.79,17l0 112.96 -36.3 0zm-101.78 -230.99c0,-2.88 0.55,-5.55 1.66,-8.01 1.11,-2.48 2.92,-4.62 5.43,-6.45 2.23,-1.56 4.66,-2.8 7.3,-3.73 2.64,-0.9 5.34,-1.37 8.13,-1.37 3.06,0 5.83,0.39 8.34,1.18 2.51,0.77 5,2.09 7.51,3.91 2.51,1.82 4.38,3.96 5.64,6.45 1.24,2.46 1.87,5.39 1.87,8.78 0,3.38 -0.63,6.4 -1.87,8.99 -1.27,2.62 -3,4.83 -5.23,6.66 -2.49,1.83 -5,3.12 -7.51,3.91 -2.49,0.77 -5.15,1.17 -7.92,1.17 -2.78,0.26 -5.57,0 -8.34,-0.79 -2.79,-0.77 -5.44,-2.07 -7.92,-3.9 -2.51,-1.82 -4.32,-4.12 -5.43,-6.84 -1.11,-2.74 -1.66,-5.81 -1.66,-9.19l0 -0.77zm2.93 43.38l36.29 0 0 187.61 -36.29 0 0 -187.61zm-321.64 0l39.62 0 0 119.99c0,4.95 0.64,9.57 1.89,13.87 1.25,4.31 3.13,8.41 5.62,12.32 2.52,3.91 5.85,6.77 10.02,8.59 4.16,1.82 9.19,2.75 15.01,2.75 6.4,0 12.11,-0.73 17.11,-2.16 5,-1.43 9.17,-3.58 12.51,-6.45 3.34,-2.86 5.85,-7.16 7.51,-12.9 1.68,-5.73 2.52,-12.9 2.52,-21.49l0 -114.52 39.22 0 0 119.99c0,8.09 0.96,14.59 2.91,19.54 1.96,4.97 5.02,8.61 9.19,10.94 3.89,2.35 8.05,4.12 12.51,5.29 4.45,1.16 9.04,1.77 13.77,1.77l0.42 0 0.21 0 0.62 0c4.74,0 9.11,-0.92 13.15,-2.75 4.04,-1.82 7.57,-4.57 10.64,-8.2 3.05,-3.65 5.34,-8.16 6.87,-13.5 1.55,-5.34 2.3,-11.52 2.3,-18.56l0 -114.52 35.88 0 0 128.98 0 1.18 0 0.77 0 0.58 0 0.21 0 0.77 0 0.39 0 0.58 0 0.58c0,7.05 -1.26,13.61 -3.76,19.74 -2.51,6.13 -6.26,11.79 -11.26,17 -5.02,4.95 -10.3,9.12 -15.87,12.51 -5.55,3.4 -11.4,6 -17.51,7.82 -0.83,0.27 -1.6,0.45 -2.3,0.58 -0.7,0.14 -1.32,0.34 -1.87,0.58 -0.85,0 -1.6,0.08 -2.31,0.21 -0.69,0.13 -1.45,0.32 -2.3,0.58 -1.38,0.27 -2.78,0.45 -4.17,0.58 -1.37,0.13 -2.77,0.21 -4.17,0.21 -7.23,0 -13.78,-0.47 -19.61,-1.37 -5.84,-0.92 -11.13,-2.27 -15.84,-4.1 -4.46,-1.32 -8.85,-3.65 -13.15,-7.05 -4.3,-3.38 -8.41,-7.54 -12.3,-12.51 -0.28,0 -0.49,-0.06 -0.63,-0.19 -0.15,-0.13 -0.2,-0.32 -0.2,-0.59 -0.28,-0.26 -0.49,-0.47 -0.64,-0.58 -0.13,-0.13 -0.21,-0.34 -0.21,-0.6 -0.28,0.27 -0.55,0.53 -0.83,0.79 -0.28,0.27 -0.42,0.53 -0.42,0.8 -0.28,0.51 -0.56,0.9 -0.83,1.16 -0.28,0.27 -0.57,0.53 -0.85,0.77 -0.54,0.53 -1.09,1.11 -1.66,1.77 -0.55,0.66 -1.11,1.24 -1.66,1.75 -2.79,2.61 -5.98,5.09 -9.6,7.42 -3.63,2.35 -7.64,4.44 -12.1,6.26 -4.45,2.08 -9.31,3.65 -14.6,4.68 -5.28,1.06 -10.85,1.58 -16.7,1.58 -9.17,0 -17.3,-1.05 -24.39,-3.14 -7.09,-2.09 -13.15,-4.94 -18.14,-8.59 -5.28,-3.91 -9.81,-8.09 -13.57,-12.51 -3.75,-4.43 -6.73,-9.12 -8.96,-14.07 -1.11,-2.61 -2.16,-5.15 -3.13,-7.63 -0.98,-2.46 -1.74,-5 -2.3,-7.61 -0.55,-2.61 -0.96,-5.02 -1.24,-7.24 -0.28,-2.2 -0.42,-4.23 -0.42,-6.06l0 -127.02z"/>
    <path class="fil3" d="M2158.2 570.17l0 -4.27c0,-9.4 -4.06,-16.53 -12.15,-21.4 -8.09,-4.87 -19.79,-7.31 -35.07,-7.31 -12.79,0 -23.11,2.24 -31,6.73 -7.87,4.47 -11.79,10.73 -11.79,18.75l0 1.94 16.28 0 0 -1.41c0,-3.97 2.17,-7.15 6.49,-9.51 4.32,-2.37 11,-3.55 20.02,-3.55 11.32,0 19.35,1.37 24.09,4.14 4.73,2.77 7.11,6.77 7.11,12.03l0 3.88 -14.64 0 0 12.28 14.64 0 0 73.09 16.15 0 0 -73.09 14.64 0 0 -12.28 -14.77 0zm-23.19 12.28l-50.54 0 0 15.93c4.25,-3.72 9.3,-5.57 15.19,-5.57 8.02,0 14.45,2.27 19.34,6.84 4.87,4.57 7.32,10.49 7.32,17.73 0,7.84 -2.79,14.1 -8.36,18.75 -5.57,4.67 -12.58,7 -21.05,7 -1.47,0 -2.53,-0.05 -3.17,-0.13l0 -12.3c0.55,0.1 1.38,0.13 2.47,0.13 4.15,0 7.49,-1.22 10.02,-3.68 2.53,-2.46 3.79,-5.62 3.79,-9.51 0,-3.61 -1.17,-6.64 -3.53,-9.05 -2.34,-2.41 -5.49,-3.63 -9.45,-3.63 -3.58,0 -6.58,1.18 -8.98,3.57 -2.38,2.37 -3.59,5.4 -3.59,9.11l0 37.91 -16.28 0 0 -16.57c-4.15,3.63 -9.21,5.43 -15.19,5.43 -7.92,0 -14.33,-2.28 -19.26,-6.84 -4.93,-4.57 -7.4,-10.47 -7.4,-17.73 0,-7.84 2.79,-14.08 8.36,-18.75 5.57,-4.66 12.58,-6.97 21.05,-6.97 1.38,0 2.43,0.03 3.17,0.12l0 12.3c-0.55,-0.1 -1.38,-0.13 -2.47,-0.13 -4.16,0 -7.49,1.22 -10.02,3.69 -2.52,2.46 -3.79,5.62 -3.79,9.52 0,3.61 1.17,6.64 3.53,9.04 2.34,2.43 5.53,3.63 9.58,3.63 3.51,0 6.45,-1.18 8.83,-3.55 2.4,-2.37 3.6,-5.41 3.6,-9.12l0 -37.14 -50.39 0 0 -12.28 117.21 0 0 12.28zm-144 -12.28l-90.29 0 0 12.28 59.5 0 0 12.82 -11.87 0c-11.96,0 -21.05,2.69 -27.26,8.07 -6.23,5.39 -9.32,12.58 -9.32,21.54 0,9.05 2.7,16.4 8.14,22.06 5.43,5.65 12.88,8.47 22.37,8.47 1.28,0 2.95,-0.08 4.96,-0.26l0 -12.68c-0.55,0.1 -1.41,0.13 -2.62,0.13 -5.51,0 -9.66,-1.55 -12.41,-4.66 -2.78,-3.1 -4.15,-7.41 -4.15,-12.92 0,-11.47 7.03,-17.21 21.13,-17.21l11.03 0 0 47.73 16.15 0 0 -73.09 14.64 0 0 -12.28zm-137.23 51.09l0 -12.04 9.94 0c9.47,0 14.22,-3.57 14.22,-10.72l0 -16.06 -32.58 0 0 -12.28 62.8 0 0 12.28 -14.07 0 0 16.96c0,5.94 -1.74,10.8 -5.19,14.53 -3.43,3.77 -8.24,5.98 -14.41,6.68 -0.57,0.16 -1.21,0.24 -1.94,0.24l28.71 34.68 -19.45 0 -28.03 -34.28zm-46.39 -38.81l14.64 0 0 73.09 16.15 0 0 -73.09 14.64 0 0 -12.28 -45.43 0 0 12.28zm-23.05 25.74l0 -38.02 30.5 0 0 12.28 -14.62 0 0 73.09 -15.88 0 0 -35.18 -23.34 0 0 16.81 -14.07 0 -4.41 -8.91c-2.49,-4.92 -3.74,-8.76 -3.74,-11.53 0,-4.31 2.07,-6.93 6.21,-7.88l0 -19.8c0,-4.64 -2.11,-6.97 -6.34,-6.97 -2.68,0 -5.21,0.6 -7.6,1.8l0 -11.9c3.13,-1.64 6.81,-2.44 11.05,-2.44 12.6,0 18.9,5.81 18.9,17.45l0 21.21 23.34 0zm-114.3 -38.02l0 39.05c0,7.07 -2.28,12.3 -6.83,15.66 -4.57,3.37 -9.92,5.04 -16.09,5.04 -4.7,0 -8.73,-1.06 -12.15,-3.18 -3.39,-2.1 -5.79,-5.06 -7.17,-8.86 21.43,-5.87 32.17,-15.17 32.17,-27.94 0,-6.38 -2.05,-11.43 -6.15,-15.2 -4.09,-3.74 -9.55,-5.62 -16.35,-5.62 -7.1,0 -12.66,1.79 -16.72,5.36 -4.04,3.59 -6.07,8.05 -6.07,13.39 0,2.86 0.57,5.7 1.66,8.53l15.46 0c-1.11,-2.31 -1.66,-4.7 -1.66,-7.11 0,-2.24 0.62,-4.08 1.87,-5.49 1.24,-1.43 3.06,-2.14 5.45,-2.14 2.4,0 4.19,0.73 5.37,2.2 1.21,1.47 1.79,3.37 1.79,5.7 0,3.27 -1.73,6.32 -5.24,9.12 -3.49,2.8 -7.9,5.04 -13.24,6.72 -5.34,1.69 -10.98,3.01 -16.92,3.94 -5.92,0.96 -11.57,1.43 -16.9,1.43l-4.96 0c2.11,-3.27 3.17,-7.33 3.17,-12.17l0 -16.17 16.14 0 0 -12.28 -61.71 0 0 12.28 29.41 0 0 15.93c0,7.24 -4.34,10.85 -12.98,10.85l-9.53 0 0 10.87 26.37 35.44 19.45 0 -25.53 -33.64c5.79,0.8 12.29,1.17 19.45,1.17l3.19 0c6.25,0 12.06,-0.51 17.39,-1.54 2.94,6.81 7.4,12.09 13.38,15.85 6,3.74 12.72,5.62 20.17,5.62 5.34,0 10.26,-0.94 14.77,-2.78 4.51,-1.86 7.67,-4.12 9.52,-6.79l0 22.11 16.28 0 0 -73.09 13.67 0 0 -12.28 -29.96 0zm-117.63 0l0 12.28 -14.64 0 0 73.09 -16.28 0 0 -18.63c-5.15,4.83 -11.92,7.25 -20.29,7.25 -7.1,0 -13.3,-1.86 -18.64,-5.57 -5.34,-3.7 -8.54,-8.87 -9.66,-15.53l-18.36 0c-7.19,0 -13.67,-0.37 -19.47,-1.17l25.54 33.64 -19.47 0 -26.37 -35.44 0 -10.87 9.52 0c8.66,0 12.98,-3.61 12.98,-10.85l0 -15.93 -29.41 0 0 -12.28 144.54 0zm-30.92 46.69l0 -34.41 -68.06 0 0 16.17c0,4.84 -1.05,8.9 -3.17,12.17l23.18 0c1.66,-5.7 5.02,-10.29 10.07,-13.78 5.08,-3.48 11.19,-5.23 18.37,-5.23 3.49,0 6.62,0.34 9.37,1.03l0 13.18c-3.13,-0.77 -5.83,-1.15 -8.13,-1.15 -4.15,0 -7.58,1.18 -10.3,3.55 -2.72,2.37 -4.06,5.53 -4.06,9.49 0,4.4 1.38,7.86 4.14,10.36 2.75,2.5 6.49,3.74 11.19,3.74 4.69,0 8.75,-1.49 12.2,-4.45 3.45,-2.99 5.19,-6.55 5.19,-10.68zm-226.27 -46.69l0 12.28 53.69 0 0 10.1 -11.58 0c-10.67,0 -18.92,2.54 -24.71,7.63 -5.81,5.07 -8.7,11.64 -8.7,19.65 0,7.86 2.7,14.37 8.07,19.54 5.38,5.17 12.49,7.77 21.34,7.77 3.49,0 7.04,-0.6 10.62,-1.81 3.59,-1.22 6.21,-2.89 7.87,-5.06l0 16.57 16.02 0 0 -36.09 -15.74 0c-0.56,4.38 -2.28,7.79 -5.19,10.16 -2.88,2.37 -6.6,3.55 -11.11,3.55 -4.6,0 -8.28,-1.32 -11.03,-3.95 -2.78,-2.63 -4.15,-6.28 -4.15,-10.92 0,-4.57 1.56,-8.2 4.69,-10.87 3.13,-2.67 7.41,-4.01 12.85,-4.01l27.05 0 0 -22.26 15.89 0 0 -12.28 -85.88 0zm-7.32 0l14.78 0 0 12.28 -14.64 0 0 73.09 -16.15 0 0 -73.09 -14.64 0 0 -12.28 14.51 0 0 -8.93c0,-3.54 -1.04,-6.27 -3.11,-8.2 -2.08,-1.96 -4.85,-2.91 -8.36,-2.91 -7.26,0 -10.91,3.7 -10.91,11.11l0 2.86 -16.28 0 0 -3.36c0,-7.77 2.57,-13.64 7.74,-17.6 5.15,-3.97 11.64,-5.94 19.45,-5.94 7.92,0 14.51,1.96 19.75,5.88 5.25,3.93 7.87,9.76 7.87,17.52l0 9.57zm-23.18 0l-128.53 0 0 12.28 16.56 0 0 26.53c-4.05,0.94 -6.07,3.53 -6.07,7.74 0,2.33 1.28,6.26 3.87,11.77l4.41 9.19 13.81 0 0 -16.17 20.02 0c0.55,1.47 1.47,3.67 2.76,6.6l4.41 9.18 13.81 0 0 -16.44 24.43 0 0 34.68 15.88 0 0 -73.09 14.64 0 0 -12.28zm-95.95 38.02l24.99 0 0 -25.74 -24.99 0 0 25.74zm65.42 -25.74l-24.43 0 0 26.14 24.43 0 0 -26.14zm-90.55 -12.28l0 12.28 -17.55 0c2.68,3.2 4.02,6.83 4.02,10.87 0,4.83 -1.51,8.71 -4.49,11.64 -3,2.93 -7.11,4.84 -12.36,5.7 6.53,0.53 11.76,2.46 15.66,5.83 3.92,3.35 5.86,7.85 5.86,13.45 0,7.5 -2.92,13.35 -8.75,17.52 -5.85,4.19 -14.02,6.28 -24.5,6.28 -7.28,0 -13.85,-1 -19.75,-2.99l0 -13.96c5.81,2.84 12.05,4.27 18.79,4.27 11.96,0 17.94,-4.15 17.94,-12.43 0,-3.53 -1.6,-6.33 -4.83,-8.4 -3.23,-2.08 -8.15,-3.11 -14.77,-3.11l-5.94 0 0 -12.94 5.11 0c5.15,0 9.05,-0.88 11.73,-2.65 2.66,-1.77 4,-4.72 4,-8.86 0,-3.7 -1.66,-7.11 -4.96,-10.23l-34.94 0 0 -12.28 69.73 0z"/>
   </g>
  </g>
 </g>
</svg>
